<svg width="38" height="38" viewBox="0 0 38 38" fill="none" xmlns="http://www.w3.org/2000/svg">
<path d="M38 30.122V2.31703H0V30.1219H13.9024V32.9024H10.6586V35.6828H27.3414V32.9024H24.0976V30.1219H38V30.122ZM21.317 32.9024H16.6829V30.122H21.317V32.9024ZM2.78046 27.3414V5.09756H35.2195V27.3414H2.78046Z" fill="white"/>
<path d="M18.5033 18.6274C18.5033 18.1969 18.4492 17.7788 18.3482 17.3793L19.7196 16.5876L18.3293 14.1797L16.9547 14.9733C16.3574 14.3929 15.6188 13.9579 14.796 13.7242V12.1397H12.0156V13.7242C11.1929 13.9579 10.4543 14.3929 9.85692 14.9732L8.48246 14.1796L7.09219 16.5875L8.46346 17.3792C8.36245 17.7789 8.30834 18.1969 8.30834 18.6275C8.30834 19.0581 8.36245 19.4761 8.46346 19.8758L7.09219 20.6675L8.48246 23.0753L9.85692 22.2817C10.4544 22.862 11.1929 23.297 12.0156 23.5307V25.1152H14.796V23.5307C15.6189 23.2971 16.3574 22.862 16.9547 22.2816L18.3293 23.0753L19.7196 20.6674L18.3482 19.8757C18.4491 19.4759 18.5033 19.0579 18.5033 18.6274ZM13.4058 20.9446C12.1282 20.9446 11.0887 19.9052 11.0887 18.6275C11.0887 17.3499 12.1281 16.3104 13.4058 16.3104C14.6834 16.3104 15.7228 17.3499 15.7228 18.6275C15.7228 19.9052 14.6834 20.9446 13.4058 20.9446Z" fill="white"/>
<path d="M30.2127 13.5299V10.7495H28.584C28.4993 10.511 28.393 10.2782 28.2638 10.0543C28.1344 9.83041 27.986 9.62193 27.8219 9.42926L28.6362 8.01881L26.2283 6.62854L25.4135 8.04003C24.9042 7.94459 24.3887 7.94414 23.8889 8.03751L23.0753 6.62854L20.6675 8.01881L21.4822 9.42993C21.1468 9.82299 20.8916 10.2715 20.7229 10.7495H19.0908V13.5299H20.7205C20.8043 13.7669 20.9098 13.9997 21.0398 14.2251C21.1699 14.4504 21.3193 14.6575 21.4825 14.8486L20.6672 16.2606L23.0751 17.6508L23.891 16.2376C24.1435 16.2847 24.4004 16.3096 24.6586 16.3096C24.9101 16.3096 25.1626 16.2857 25.4133 16.2395L26.2282 17.6508L28.636 16.2606L27.8225 14.8516C28.1534 14.4653 28.4108 14.0189 28.5828 13.5299H30.2127ZM25.347 13.3436C24.683 13.7269 23.8312 13.4987 23.4478 12.8348C23.0645 12.1709 23.2928 11.3189 23.9567 10.9356C24.171 10.812 24.4086 10.7487 24.6496 10.7487C24.7704 10.7487 24.892 10.7646 25.0117 10.7967C25.3704 10.8929 25.6701 11.1229 25.8559 11.4445C26.2391 12.1085 26.0108 12.9603 25.347 13.3436Z" fill="white"/>
</svg>
